<?xml version="1.0" standalone="no"?>
<!DOCTYPE svg PUBLIC "-//W3C//DTD SVG 20010904//EN"
 "http://www.w3.org/TR/2001/REC-SVG-20010904/DTD/svg10.dtd">
<svg version="1.0" xmlns="http://www.w3.org/2000/svg"
 width="260.000000pt" height="260.000000pt" viewBox="0 0 260.000000 260.000000"
 preserveAspectRatio="xMidYMid meet">
<metadata>
Created by potrace 1.11, written by Peter Selinger 2001-2013
</metadata>
<g transform="translate(0.000000,260.000000) scale(0.100000,-0.100000)"
fill="#000000" stroke="none">
<path d="M0 1300 l0 -1300 1300 0 1300 0 0 1300 0 1300 -1300 0 -1300 0 0
-1300z m1017 558 l281 -281 289 281 288 282 260 0 260 0 -414 -414 -414 -414
407 -414 408 -413 -257 -3 -257 -2 -287 279 -287 280 -279 -280 -279 -279
-261 0 -260 0 240 243 c132 133 316 320 410 415 l170 172 -415 415 -415 415
265 0 265 0 282 -282z"/>
</g>
</svg>
